<svg width="25" height="25" viewBox="0 0 25 25" fill="none" xmlns="http://www.w3.org/2000/svg">
<path d="M12.5416 2.08325C6.85413 2.08325 2.21871 6.71867 2.21871 12.4062C2.21871 14.2291 2.69788 15.9999 3.59371 17.5624L2.13538 22.9166L7.60413 21.4791C9.11454 22.302 10.8125 22.7395 12.5416 22.7395C18.2291 22.7395 22.8645 18.1041 22.8645 12.4166C22.8645 9.65617 21.7916 7.06242 19.8437 5.1145C17.8958 3.15617 15.302 2.08325 12.5416 2.08325ZM12.552 3.82284C14.8437 3.82284 16.9895 4.71867 18.6145 6.34367C20.2291 7.96867 21.125 10.1249 21.125 12.4166C21.125 17.1458 17.2708 20.9895 12.5416 20.9895C11 20.9895 9.48954 20.5833 8.17704 19.7916L7.86454 19.6145L4.61454 20.4687L5.47913 17.302L5.27079 16.9687C4.41663 15.6249 3.95829 14.0312 3.95829 12.4062C3.96871 7.677 7.81246 3.82284 12.552 3.82284ZM8.88538 7.63534C8.71871 7.63534 8.43746 7.69784 8.19788 7.95825C7.96871 8.21867 7.29163 8.85409 7.29163 10.1145C7.29163 11.3853 8.21871 12.6041 8.33329 12.7812C8.47913 12.9583 10.1666 15.5624 12.7604 16.6666C13.375 16.9478 13.8541 17.1041 14.2291 17.2187C14.8437 17.4166 15.4062 17.3853 15.8541 17.3228C16.3541 17.2499 17.375 16.6978 17.5937 16.0937C17.8125 15.4895 17.8125 14.9791 17.75 14.8645C17.677 14.7603 17.5104 14.6978 17.25 14.5833C16.9895 14.4374 15.7187 13.8124 15.4895 13.7291C15.25 13.6458 15.1041 13.6041 14.9062 13.8541C14.7395 14.1145 14.2395 14.6978 14.0937 14.8645C13.9375 15.0416 13.7916 15.0624 13.5416 14.9374C13.2708 14.802 12.4375 14.5312 11.4583 13.6562C10.6875 12.9687 10.177 12.1249 10.0208 11.8645C9.89579 11.6145 10.0104 11.4583 10.1354 11.3437C10.25 11.2291 10.4166 11.0416 10.5208 10.8853C10.6562 10.7395 10.6979 10.6249 10.7812 10.4583C10.8645 10.2812 10.8229 10.1353 10.7604 10.0103C10.6979 9.89575 10.177 8.60409 9.95829 8.09367C9.74996 7.59367 9.54163 7.65617 9.37496 7.64575C9.22913 7.64575 9.06246 7.63534 8.88538 7.63534Z" fill="#282828"/>
</svg>
